<mxfile host="app.diagrams.net" modified="2024-06-01T23:31:34.482Z" agent="Mozilla/5.0 (Windows NT 10.0; Win64; x64) AppleWebKit/537.36 (KHTML, like Gecko) Chrome/123.0.0.0 Safari/537.36" etag="-dGGFLv322LR0TxisY8b" version="24.4.13" type="device">
  <diagram name="PÃ¡gina-1" id="Zj0vyfltJiMhHS-MtXwJ">
    <mxGraphModel dx="2876" dy="1066" grid="1" gridSize="10" guides="1" tooltips="1" connect="1" arrows="1" fold="1" page="1" pageScale="1" pageWidth="827" pageHeight="1169" math="0" shadow="0">
      <root>
        <mxCell id="0" />
        <mxCell id="1" parent="0" />
        <mxCell id="OvgM6n4Q3ythq3tQk2cq-47" style="edgeStyle=orthogonalEdgeStyle;rounded=0;orthogonalLoop=1;jettySize=auto;html=1;entryX=0;entryY=0.5;entryDx=0;entryDy=0;exitX=0.514;exitY=0.125;exitDx=0;exitDy=0;exitPerimeter=0;" edge="1" parent="1" source="OvgM6n4Q3ythq3tQk2cq-8" target="OvgM6n4Q3ythq3tQk2cq-28">
          <mxGeometry relative="1" as="geometry" />
        </mxCell>
        <mxCell id="OvgM6n4Q3ythq3tQk2cq-48" style="edgeStyle=orthogonalEdgeStyle;rounded=0;orthogonalLoop=1;jettySize=auto;html=1;entryX=0;entryY=0.5;entryDx=0;entryDy=0;exitX=0.729;exitY=0.163;exitDx=0;exitDy=0;exitPerimeter=0;" edge="1" parent="1" source="OvgM6n4Q3ythq3tQk2cq-8" target="OvgM6n4Q3ythq3tQk2cq-32">
          <mxGeometry relative="1" as="geometry">
            <Array as="points">
              <mxPoint x="-420" y="415" />
              <mxPoint x="-420" y="334" />
            </Array>
          </mxGeometry>
        </mxCell>
        <mxCell id="OvgM6n4Q3ythq3tQk2cq-52" style="edgeStyle=orthogonalEdgeStyle;rounded=0;orthogonalLoop=1;jettySize=auto;html=1;entryX=0;entryY=0.5;entryDx=0;entryDy=0;" edge="1" parent="1" source="OvgM6n4Q3ythq3tQk2cq-8" target="OvgM6n4Q3ythq3tQk2cq-38">
          <mxGeometry relative="1" as="geometry">
            <Array as="points">
              <mxPoint x="-410" y="602" />
            </Array>
          </mxGeometry>
        </mxCell>
        <mxCell id="OvgM6n4Q3ythq3tQk2cq-8" value="Controll" style="ellipse;shape=umlControl;whiteSpace=wrap;html=1;" vertex="1" parent="1">
          <mxGeometry x="-470" y="402" width="70" height="80" as="geometry" />
        </mxCell>
        <mxCell id="OvgM6n4Q3ythq3tQk2cq-9" value="Interface WEB" style="shape=umlBoundary;whiteSpace=wrap;html=1;" vertex="1" parent="1">
          <mxGeometry x="-730" y="402" width="100" height="80" as="geometry" />
        </mxCell>
        <mxCell id="OvgM6n4Q3ythq3tQk2cq-25" value="Account" style="swimlane;fontStyle=1;align=center;verticalAlign=top;childLayout=stackLayout;horizontal=1;startSize=26;horizontalStack=0;resizeParent=1;resizeParentMax=0;resizeLast=0;collapsible=1;marginBottom=0;whiteSpace=wrap;html=1;" vertex="1" parent="1">
          <mxGeometry x="-350" y="110" width="200" height="190" as="geometry" />
        </mxCell>
        <mxCell id="OvgM6n4Q3ythq3tQk2cq-26" value="+ id : int&lt;div&gt;+ email : string&lt;/div&gt;&lt;div&gt;+ name : string&lt;/div&gt;&lt;div&gt;- pword : string&lt;/div&gt;" style="text;strokeColor=none;fillColor=none;align=left;verticalAlign=top;spacingLeft=4;spacingRight=4;overflow=hidden;rotatable=0;points=[[0,0.5],[1,0.5]];portConstraint=eastwest;whiteSpace=wrap;html=1;fontFamily=Lucida Console;" vertex="1" parent="OvgM6n4Q3ythq3tQk2cq-25">
          <mxGeometry y="26" width="200" height="64" as="geometry" />
        </mxCell>
        <mxCell id="OvgM6n4Q3ythq3tQk2cq-27" value="" style="line;strokeWidth=1;fillColor=none;align=left;verticalAlign=middle;spacingTop=-1;spacingLeft=3;spacingRight=3;rotatable=0;labelPosition=right;points=[];portConstraint=eastwest;strokeColor=inherit;" vertex="1" parent="OvgM6n4Q3ythq3tQk2cq-25">
          <mxGeometry y="90" width="200" height="8" as="geometry" />
        </mxCell>
        <mxCell id="OvgM6n4Q3ythq3tQk2cq-28" value="&lt;font face=&quot;Lucida Console&quot;&gt;+ get_all(): Dict[]&lt;/font&gt;&lt;div&gt;&lt;font face=&quot;Lucida Console&quot;&gt;+ get_by_id(id:int):&amp;nbsp;&lt;/font&gt;&lt;span style=&quot;font-family: &amp;quot;Lucida Console&amp;quot;; background-color: initial;&quot;&gt;Dict&lt;/span&gt;&lt;/div&gt;&lt;div&gt;&lt;font face=&quot;Lucida Console&quot;&gt;+ new(data:dict): void&lt;/font&gt;&lt;/div&gt;&lt;div&gt;&lt;font face=&quot;Lucida Console&quot;&gt;+ drop(id:int): void&lt;/font&gt;&lt;/div&gt;&lt;div&gt;&lt;font face=&quot;Lucida Console&quot;&gt;+ update(data:dict): void&lt;/font&gt;&lt;/div&gt;" style="text;strokeColor=none;fillColor=none;align=left;verticalAlign=top;spacingLeft=4;spacingRight=4;overflow=hidden;rotatable=0;points=[[0,0.5],[1,0.5]];portConstraint=eastwest;whiteSpace=wrap;html=1;" vertex="1" parent="OvgM6n4Q3ythq3tQk2cq-25">
          <mxGeometry y="98" width="200" height="92" as="geometry" />
        </mxCell>
        <mxCell id="OvgM6n4Q3ythq3tQk2cq-29" value="Build" style="swimlane;fontStyle=1;align=center;verticalAlign=top;childLayout=stackLayout;horizontal=1;startSize=26;horizontalStack=0;resizeParent=1;resizeParentMax=0;resizeLast=0;collapsible=1;marginBottom=0;whiteSpace=wrap;html=1;" vertex="1" parent="1">
          <mxGeometry y="70" width="200" height="310" as="geometry" />
        </mxCell>
        <mxCell id="OvgM6n4Q3ythq3tQk2cq-30" value="&lt;div style=&quot;&quot;&gt;&lt;font style=&quot;font-size: 11px;&quot;&gt;+ id : int&lt;/font&gt;&lt;div style=&quot;font-size: 11px;&quot;&gt;&lt;font&gt;+ id_account : int&lt;br&gt;&lt;/font&gt;&lt;div&gt;&lt;span style=&quot;background-color: initial;&quot;&gt;&lt;font style=&quot;font-size: 12px;&quot;&gt;+ name : string&lt;/font&gt;&lt;/span&gt;&lt;/div&gt;&lt;/div&gt;&lt;div style=&quot;&quot;&gt;&lt;span style=&quot;background-color: initial;&quot;&gt;&lt;font&gt;+ helmet : int&lt;/font&gt;&lt;/span&gt;&lt;/div&gt;&lt;div style=&quot;&quot;&gt;&lt;font&gt;&lt;span style=&quot;background-color: initial;&quot;&gt;+ body : int&lt;/span&gt;&lt;br&gt;&lt;/font&gt;&lt;/div&gt;&lt;div style=&quot;&quot;&gt;&lt;font&gt;&lt;span style=&quot;background-color: initial;&quot;&gt;+ gloves : int&lt;/span&gt;&lt;br&gt;&lt;/font&gt;&lt;/div&gt;&lt;div style=&quot;&quot;&gt;&lt;font&gt;&lt;span style=&quot;background-color: initial;&quot;&gt;+ boots : int&lt;/span&gt;&lt;br&gt;&lt;/font&gt;&lt;/div&gt;&lt;div style=&quot;&quot;&gt;&lt;font&gt;&lt;span style=&quot;background-color: initial;&quot;&gt;+ main_hand : int&lt;/span&gt;&lt;br&gt;&lt;/font&gt;&lt;/div&gt;&lt;div style=&quot;&quot;&gt;&lt;font&gt;&lt;span style=&quot;background-color: initial;&quot;&gt;+ off_hand : int&lt;/span&gt;&lt;br&gt;&lt;/font&gt;&lt;/div&gt;&lt;div style=&quot;&quot;&gt;&lt;font&gt;&lt;span style=&quot;background-color: initial;&quot;&gt;+ amulet : int&lt;/span&gt;&lt;br&gt;&lt;/font&gt;&lt;/div&gt;&lt;div style=&quot;&quot;&gt;&lt;span style=&quot;background-color: initial;&quot;&gt;&lt;font&gt;+ ring : int&lt;/font&gt;&lt;/span&gt;&lt;br&gt;&lt;/div&gt;&lt;div style=&quot;&quot;&gt;&lt;span style=&quot;background-color: initial;&quot;&gt;+ belt : int&lt;/span&gt;&lt;/div&gt;&lt;/div&gt;" style="text;strokeColor=none;fillColor=none;align=left;verticalAlign=top;spacingLeft=4;spacingRight=4;overflow=hidden;rotatable=0;points=[[0,0.5],[1,0.5]];portConstraint=eastwest;whiteSpace=wrap;html=1;fontFamily=Lucida Console;" vertex="1" parent="OvgM6n4Q3ythq3tQk2cq-29">
          <mxGeometry y="26" width="200" height="184" as="geometry" />
        </mxCell>
        <mxCell id="OvgM6n4Q3ythq3tQk2cq-31" value="" style="line;strokeWidth=1;fillColor=none;align=left;verticalAlign=middle;spacingTop=-1;spacingLeft=3;spacingRight=3;rotatable=0;labelPosition=right;points=[];portConstraint=eastwest;strokeColor=inherit;" vertex="1" parent="OvgM6n4Q3ythq3tQk2cq-29">
          <mxGeometry y="210" width="200" height="8" as="geometry" />
        </mxCell>
        <mxCell id="OvgM6n4Q3ythq3tQk2cq-32" value="&lt;font face=&quot;Lucida Console&quot;&gt;+ get_all(): Dict[]&lt;/font&gt;&lt;div&gt;&lt;font face=&quot;Lucida Console&quot;&gt;+ get_by_id(id:int):&amp;nbsp;&lt;/font&gt;&lt;span style=&quot;font-family: &amp;quot;Lucida Console&amp;quot;; background-color: initial;&quot;&gt;Dict&lt;/span&gt;&lt;/div&gt;&lt;div&gt;&lt;font face=&quot;Lucida Console&quot;&gt;+ new(data:dict): void&lt;/font&gt;&lt;/div&gt;&lt;div&gt;&lt;font face=&quot;Lucida Console&quot;&gt;+ drop(id:int): void&lt;/font&gt;&lt;/div&gt;&lt;div&gt;&lt;font face=&quot;Lucida Console&quot;&gt;+ update(data:dict): void&lt;/font&gt;&lt;/div&gt;" style="text;strokeColor=none;fillColor=none;align=left;verticalAlign=top;spacingLeft=4;spacingRight=4;overflow=hidden;rotatable=0;points=[[0,0.5],[1,0.5]];portConstraint=eastwest;whiteSpace=wrap;html=1;" vertex="1" parent="OvgM6n4Q3ythq3tQk2cq-29">
          <mxGeometry y="218" width="200" height="92" as="geometry" />
        </mxCell>
        <mxCell id="OvgM6n4Q3ythq3tQk2cq-33" value="Monster" style="swimlane;fontStyle=1;align=center;verticalAlign=top;childLayout=stackLayout;horizontal=1;startSize=26;horizontalStack=0;resizeParent=1;resizeParentMax=0;resizeLast=0;collapsible=1;marginBottom=0;whiteSpace=wrap;html=1;" vertex="1" parent="1">
          <mxGeometry x="400" y="70" width="260" height="275" as="geometry" />
        </mxCell>
        <mxCell id="OvgM6n4Q3ythq3tQk2cq-34" value="+ id : int&lt;div&gt;+ name : string&lt;br&gt;&lt;/div&gt;&lt;div&gt;+ type : string&lt;br&gt;&lt;/div&gt;&lt;div&gt;+ atk : int&lt;br&gt;&lt;/div&gt;&lt;div&gt;+ atks : float&lt;br&gt;&lt;/div&gt;&lt;div&gt;+ def : int&lt;/div&gt;&lt;div&gt;+ hp : int&lt;br&gt;&lt;/div&gt;&lt;div&gt;+ crit_chance : int&lt;br&gt;&lt;/div&gt;&lt;div&gt;+ crit_mult : int&lt;br&gt;&lt;/div&gt;" style="text;strokeColor=none;fillColor=none;align=left;verticalAlign=top;spacingLeft=4;spacingRight=4;overflow=hidden;rotatable=0;points=[[0,0.5],[1,0.5]];portConstraint=eastwest;whiteSpace=wrap;html=1;fontFamily=Lucida Console;" vertex="1" parent="OvgM6n4Q3ythq3tQk2cq-33">
          <mxGeometry y="26" width="260" height="137" as="geometry" />
        </mxCell>
        <mxCell id="OvgM6n4Q3ythq3tQk2cq-35" value="" style="line;strokeWidth=1;fillColor=none;align=left;verticalAlign=middle;spacingTop=-1;spacingLeft=3;spacingRight=3;rotatable=0;labelPosition=right;points=[];portConstraint=eastwest;strokeColor=inherit;" vertex="1" parent="OvgM6n4Q3ythq3tQk2cq-33">
          <mxGeometry y="163" width="260" height="8" as="geometry" />
        </mxCell>
        <mxCell id="OvgM6n4Q3ythq3tQk2cq-36" value="&lt;font face=&quot;Lucida Console&quot;&gt;+ get_all(): Dict[]&lt;/font&gt;&lt;div&gt;&lt;font face=&quot;Lucida Console&quot;&gt;+ get_by_id(id:int): Dict&lt;/font&gt;&lt;/div&gt;&lt;div&gt;&lt;font face=&quot;Lucida Console&quot;&gt;+ get_by_type(type:string): Dict[]&lt;/font&gt;&lt;/div&gt;&lt;div&gt;&lt;font face=&quot;Lucida Console&quot;&gt;+ new(data:dict): void&lt;/font&gt;&lt;/div&gt;&lt;div&gt;&lt;font face=&quot;Lucida Console&quot;&gt;+ drop(id:int): void&lt;/font&gt;&lt;/div&gt;&lt;div&gt;&lt;font face=&quot;Lucida Console&quot;&gt;+ update(data:dict): void&lt;/font&gt;&lt;/div&gt;" style="text;strokeColor=none;fillColor=none;align=left;verticalAlign=top;spacingLeft=4;spacingRight=4;overflow=hidden;rotatable=0;points=[[0,0.5],[1,0.5]];portConstraint=eastwest;whiteSpace=wrap;html=1;" vertex="1" parent="OvgM6n4Q3ythq3tQk2cq-33">
          <mxGeometry y="171" width="260" height="104" as="geometry" />
        </mxCell>
        <mxCell id="OvgM6n4Q3ythq3tQk2cq-37" value="Item" style="swimlane;fontStyle=1;align=center;verticalAlign=top;childLayout=stackLayout;horizontal=1;startSize=26;horizontalStack=0;resizeParent=1;resizeParentMax=0;resizeLast=0;collapsible=1;marginBottom=0;whiteSpace=wrap;html=1;" vertex="1" parent="1">
          <mxGeometry x="-30" y="500" width="310" height="310" as="geometry" />
        </mxCell>
        <mxCell id="OvgM6n4Q3ythq3tQk2cq-38" value="+ id : int&lt;div&gt;+ category : string&lt;/div&gt;&lt;div&gt;+ type : string&lt;/div&gt;&lt;div&gt;+ name : string&lt;/div&gt;&lt;div&gt;+ atk : int&lt;/div&gt;&lt;div&gt;+ atks : float&lt;/div&gt;&lt;div&gt;+ def : int&lt;/div&gt;&lt;div&gt;+ hp : int&lt;/div&gt;&lt;div&gt;+ crit_chance : int&lt;/div&gt;&lt;div&gt;+ crit_mult : int&lt;/div&gt;" style="text;strokeColor=none;fillColor=none;align=left;verticalAlign=top;spacingLeft=4;spacingRight=4;overflow=hidden;rotatable=0;points=[[0,0.5],[1,0.5]];portConstraint=eastwest;whiteSpace=wrap;html=1;fontFamily=Lucida Console;" vertex="1" parent="OvgM6n4Q3ythq3tQk2cq-37">
          <mxGeometry y="26" width="310" height="152" as="geometry" />
        </mxCell>
        <mxCell id="OvgM6n4Q3ythq3tQk2cq-39" value="" style="line;strokeWidth=1;fillColor=none;align=left;verticalAlign=middle;spacingTop=-1;spacingLeft=3;spacingRight=3;rotatable=0;labelPosition=right;points=[];portConstraint=eastwest;strokeColor=inherit;" vertex="1" parent="OvgM6n4Q3ythq3tQk2cq-37">
          <mxGeometry y="178" width="310" height="8" as="geometry" />
        </mxCell>
        <mxCell id="OvgM6n4Q3ythq3tQk2cq-40" value="&lt;font face=&quot;Lucida Console&quot;&gt;+ get_all(): Dict[]&lt;/font&gt;&lt;div&gt;&lt;font face=&quot;Lucida Console&quot;&gt;+ get_by_id(id:int):&amp;nbsp;&lt;/font&gt;&lt;span style=&quot;font-family: &amp;quot;Lucida Console&amp;quot;; background-color: initial;&quot;&gt;Dict&lt;/span&gt;&lt;/div&gt;&lt;div&gt;&lt;span style=&quot;font-family: &amp;quot;Lucida Console&amp;quot;; background-color: initial;&quot;&gt;+ get_by_type(type:string): Dict[]&lt;/span&gt;&lt;/div&gt;&lt;div&gt;&lt;span style=&quot;font-family: &amp;quot;Lucida Console&amp;quot;; background-color: initial;&quot;&gt;+ get_by_category(category:string) Dict[]&lt;/span&gt;&lt;/div&gt;&lt;div&gt;&lt;font face=&quot;Lucida Console&quot;&gt;+ new(data:dict): void&lt;/font&gt;&lt;/div&gt;&lt;div&gt;&lt;font face=&quot;Lucida Console&quot;&gt;+ drop(id:int): void&lt;/font&gt;&lt;/div&gt;&lt;div&gt;&lt;font face=&quot;Lucida Console&quot;&gt;+ update(data:dict): void&lt;/font&gt;&lt;/div&gt;" style="text;strokeColor=none;fillColor=none;align=left;verticalAlign=top;spacingLeft=4;spacingRight=4;overflow=hidden;rotatable=0;points=[[0,0.5],[1,0.5]];portConstraint=eastwest;whiteSpace=wrap;html=1;" vertex="1" parent="OvgM6n4Q3ythq3tQk2cq-37">
          <mxGeometry y="186" width="310" height="124" as="geometry" />
        </mxCell>
        <mxCell id="OvgM6n4Q3ythq3tQk2cq-41" value="" style="edgeStyle=orthogonalEdgeStyle;rounded=0;orthogonalLoop=1;jettySize=auto;html=1;exitX=1;exitY=0.5;exitDx=0;exitDy=0;entryX=0;entryY=0.391;entryDx=0;entryDy=0;entryPerimeter=0;startArrow=classic;startFill=1;endArrow=none;endFill=0;" edge="1" parent="1" source="OvgM6n4Q3ythq3tQk2cq-26" target="OvgM6n4Q3ythq3tQk2cq-30">
          <mxGeometry x="0.0016" y="28" relative="1" as="geometry">
            <mxPoint as="offset" />
          </mxGeometry>
        </mxCell>
        <mxCell id="OvgM6n4Q3ythq3tQk2cq-42" value="1&amp;nbsp; &amp;nbsp; &amp;nbsp; &amp;nbsp; &amp;nbsp; &amp;nbsp;Possui&amp;nbsp; &amp;nbsp; &amp;nbsp; &amp;nbsp; &amp;nbsp; 0..*" style="text;html=1;align=center;verticalAlign=middle;resizable=0;points=[];autosize=1;strokeColor=none;fillColor=none;" vertex="1" parent="1">
          <mxGeometry x="-147" y="144" width="150" height="30" as="geometry" />
        </mxCell>
        <mxCell id="OvgM6n4Q3ythq3tQk2cq-43" style="edgeStyle=orthogonalEdgeStyle;rounded=0;orthogonalLoop=1;jettySize=auto;html=1;exitX=0.5;exitY=0;exitDx=0;exitDy=0;entryX=0.5;entryY=0.996;entryDx=0;entryDy=0;entryPerimeter=0;endArrow=none;endFill=0;startArrow=classic;startFill=1;" edge="1" parent="1" source="OvgM6n4Q3ythq3tQk2cq-37" target="OvgM6n4Q3ythq3tQk2cq-32">
          <mxGeometry relative="1" as="geometry" />
        </mxCell>
        <mxCell id="OvgM6n4Q3ythq3tQk2cq-44" value="1..9&amp;nbsp; &amp;nbsp; &amp;nbsp; &amp;nbsp;Aloca&amp;nbsp; &amp;nbsp; &amp;nbsp; &amp;nbsp; &amp;nbsp; 1" style="text;html=1;align=center;verticalAlign=middle;resizable=0;points=[];autosize=1;strokeColor=none;fillColor=none;rotation=-90;" vertex="1" parent="1">
          <mxGeometry x="19" y="427" width="140" height="30" as="geometry" />
        </mxCell>
        <mxCell id="OvgM6n4Q3ythq3tQk2cq-46" style="edgeStyle=orthogonalEdgeStyle;rounded=0;orthogonalLoop=1;jettySize=auto;html=1;entryX=-0.041;entryY=0.502;entryDx=0;entryDy=0;entryPerimeter=0;" edge="1" parent="1" source="OvgM6n4Q3ythq3tQk2cq-9" target="OvgM6n4Q3ythq3tQk2cq-8">
          <mxGeometry relative="1" as="geometry" />
        </mxCell>
        <mxCell id="OvgM6n4Q3ythq3tQk2cq-51" style="edgeStyle=orthogonalEdgeStyle;rounded=0;orthogonalLoop=1;jettySize=auto;html=1;entryX=0.538;entryY=1.019;entryDx=0;entryDy=0;entryPerimeter=0;" edge="1" parent="1" source="OvgM6n4Q3ythq3tQk2cq-8" target="OvgM6n4Q3ythq3tQk2cq-36">
          <mxGeometry relative="1" as="geometry">
            <Array as="points">
              <mxPoint x="-435" y="930" />
              <mxPoint x="540" y="930" />
            </Array>
          </mxGeometry>
        </mxCell>
        <mxCell id="OvgM6n4Q3ythq3tQk2cq-53" value="CD - DuckEpoch" style="shape=umlFrame;whiteSpace=wrap;html=1;pointerEvents=0;recursiveResize=0;container=1;collapsible=0;width=160;" vertex="1" parent="1">
          <mxGeometry x="-740" y="50" width="1420" height="890" as="geometry" />
        </mxCell>
      </root>
    </mxGraphModel>
  </diagram>
</mxfile>
